<?xml version="1.0" standalone="no"?>
<!DOCTYPE svg PUBLIC "-//W3C//DTD SVG 20010904//EN"
 "http://www.w3.org/TR/2001/REC-SVG-20010904/DTD/svg10.dtd">
<svg version="1.0" xmlns="http://www.w3.org/2000/svg"
 width="128.000000pt" height="128.000000pt" viewBox="0 0 128.000000 128.000000"
 preserveAspectRatio="xMidYMid meet">
<metadata>
Created by potrace 1.11, written by Peter Selinger 2001-2013
</metadata>
<g transform="translate(0.000000,128.000000) scale(0.100000,-0.100000)"
fill="#000000" stroke="none">
<path d="M457 1214 c-1 -1 -43 -5 -94 -8 -174 -13 -301 -43 -340 -82 -21 -21
-23 -32 -23 -112 0 -103 9 -119 83 -151 l47 -20 0 -79 0 -79 -41 -12 c-23 -7
-52 -23 -65 -36 -22 -22 -24 -33 -24 -115 0 -86 2 -92 26 -115 15 -14 30 -25
33 -25 4 0 6 -38 5 -85 -1 -98 8 -121 58 -147 206 -107 813 -108 1028 -4 60
30 69 51 65 155 -3 82 -5 87 -35 112 -30 26 -31 28 -28 100 l3 74 47 22 c68
32 78 52 78 153 0 98 -12 118 -85 143 l-40 14 -3 93 c-2 55 -8 100 -15 109
-32 39 -175 75 -342 87 -98 6 -333 12 -338 8z m273 -48 c63 -3 126 -7 140 -10
14 -2 44 -7 68 -10 62 -8 123 -25 150 -42 34 -22 14 -39 -81 -69 -243 -77
-740 -65 -923 22 -18 9 -34 23 -34 30 0 18 50 38 129 53 96 17 126 20 256 27
66 3 121 6 122 7 2 2 15 1 30 0 16 -2 80 -5 143 -8z m-644 -159 c15 -9 20 -22
20 -52 -1 -22 -4 -41 -8 -42 -33 -11 -58 19 -56 68 1 41 10 46 44 26z m1024
-32 c0 -39 -3 -46 -30 -60 -16 -9 -31 -13 -31 -10 -1 3 -2 24 -3 48 -1 33 3
45 19 54 36 22 45 16 45 -32z m-911 -4 c14 -9 20 -85 8 -97 -3 -4 -18 -4 -32
0 -23 6 -25 11 -25 56 0 52 14 63 49 41z m803 -31 c4 -49 1 -56 -35 -65 -27
-7 -27 -7 -27 43 0 50 6 60 41 61 13 1 18 -10 21 -39z m-698 14 c12 -4 16 -20
16 -55 0 -45 -2 -49 -24 -49 -32 0 -41 15 -41 68 -1 43 10 51 49 36z m592 -46
c2 -40 -1 -47 -19 -52 -43 -11 -47 -8 -47 43 0 51 8 61 44 58 16 -2 20 -11 22
-49z m-476 33 c3 -1 6 -24 6 -51 2 -50 2 -50 -30 -50 -31 0 -32 1 -33 47 -2
57 2 64 30 59 12 -3 24 -5 27 -5z m370 -47 l0 -55 -32 3 c-31 3 -33 5 -33 43
0 49 7 60 39 63 25 2 26 0 26 -54z m-236 -1 c-1 -27 -2 -52 -3 -56 -1 -5 -18
-7 -38 -5 l-38 4 -3 52 -3 52 43 0 43 0 -1 -47z m128 35 c2 -7 1 -31 -2 -53
-5 -38 -7 -40 -42 -41 -40 -2 -40 -2 -40 61 0 14 0 30 1 35 1 15 78 12 83 -2z
m509 -69 c41 -18 47 -24 37 -36 -41 -49 -292 -97 -513 -97 -197 0 -367 23
-482 66 -52 19 -74 44 -31 33 166 -40 540 -43 718 -6 58 13 123 31 145 41 53
24 67 24 126 -1z m-962 -116 c3 -2 5 -25 6 -52 1 -40 -2 -48 -14 -43 -36 12
-51 35 -51 78 l0 44 28 -12 c15 -7 29 -13 31 -15z m1008 -18 c0 -44 -13 -65
-48 -78 -13 -4 -16 3 -14 41 2 62 1 59 33 70 15 6 27 11 28 11 1 1 1 -19 1
-44z m-899 -63 l3 -53 -28 7 c-15 4 -29 7 -30 8 -3 2 -6 61 -5 83 2 18 6 20
30 14 24 -7 27 -12 30 -59z m792 14 c0 -51 -2 -54 -27 -59 -34 -6 -34 -6 -35
35 -1 69 -3 66 55 77 4 0 7 -23 7 -53z m-682 -34 c3 -54 -1 -58 -41 -43 -21 8
-23 15 -21 58 1 26 2 49 3 50 1 1 13 -2 29 -6 24 -7 27 -12 30 -59z m576 7
c-2 -47 -3 -48 -35 -51 -22 -3 -24 1 -27 49 -3 50 -2 52 25 55 35 4 40 -3 37
-53z m-470 -14 c0 -52 -4 -55 -56 -46 -5 0 -8 24 -8 52 l0 50 32 -3 c32 -3 33
-4 32 -53z m104 46 c21 -1 23 -5 20 -53 l-3 -53 -35 3 c-19 2 -36 5 -38 6 -2
3 -5 86 -3 98 0 3 9 5 19 3 9 -2 27 -4 40 -4z m145 0 c4 -1 7 -23 7 -50 0 -46
-2 -49 -29 -53 -45 -7 -56 3 -56 50 0 46 12 60 48 56 12 -1 25 -3 30 -3z m114
-41 c0 -27 -3 -51 -6 -51 -3 -1 -17 -2 -31 -3 -22 -1 -24 3 -26 44 -2 56 0 60
36 60 28 0 28 -1 27 -50z m-752 -9 c16 -26 189 -72 330 -87 135 -14 396 -8
513 12 44 7 41 -3 -5 -15 -131 -35 -282 -50 -463 -46 -91 2 -187 6 -215 10
-117 16 -265 61 -281 86 -6 10 71 48 98 49 9 0 19 -4 23 -9z m-82 -112 c21
-10 24 -17 24 -60 -2 -54 -11 -60 -45 -29 -16 15 -21 31 -20 60 1 43 5 46 41
29z m1027 -33 c0 -36 -5 -47 -26 -61 -32 -20 -35 -17 -38 35 -2 32 2 44 18 56
35 24 46 18 46 -30z m-911 -5 c12 -8 16 -38 12 -91 -1 -6 -13 -9 -28 -7 -26 3
-28 7 -31 55 -3 45 0 52 15 52 10 0 24 -4 32 -9z m802 -13 c5 -68 -5 -88 -43
-88 -15 0 -18 9 -18 49 0 39 4 51 18 54 35 9 42 7 43 -15z m-697 -4 c12 -4 16
-20 16 -55 0 -49 0 -49 -30 -47 -19 1 -31 8 -31 18 -4 42 -5 76 -1 83 4 9 25
9 46 1z m592 -41 c0 -51 -8 -63 -43 -63 -21 0 -23 5 -23 49 0 50 6 59 45 60
18 1 21 -5 21 -46z m-481 28 c6 -1 11 -23 12 -51 l1 -50 -32 0 c-33 0 -33 1
-33 48 -1 56 2 61 25 57 9 -2 22 -4 27 -4z m375 -48 l0 -54 -32 3 c-31 3 -33
5 -33 43 -1 56 2 61 35 61 30 0 30 0 30 -53z m-238 35 c2 -7 3 -31 3 -53 l0
-40 -42 -1 -43 -1 0 53 0 54 39 0 c22 0 40 -5 43 -12z m130 -15 c2 -16 1 -39
-2 -53 -4 -21 -12 -26 -42 -28 l-38 -4 0 56 0 56 39 0 c35 0 39 -3 43 -27z
m473 -46 c10 -8 15 -19 11 -25 -14 -24 -139 -61 -256 -76 -25 -4 -62 -9 -82
-12 -52 -8 -290 -8 -368 0 -157 17 -320 57 -342 84 -10 12 -10 14 -1 8 16 -9
149 -35 228 -44 80 -9 383 -9 469 1 91 10 200 35 250 58 50 22 67 23 91 6z
m-985 -158 l0 -50 -29 16 c-30 15 -39 39 -32 87 3 27 4 27 32 12 26 -13 29
-19 29 -65z m1002 15 c-3 -26 -12 -38 -33 -50 l-29 -15 0 54 c0 49 2 54 28 63
32 12 40 0 34 -52z m-895 -41 l3 -50 -33 6 c-29 6 -32 10 -34 46 -3 58 1 65
34 56 25 -7 28 -12 30 -58z m790 10 c-2 -42 -5 -47 -29 -54 -16 -4 -29 -7 -29
-6 -5 8 -8 66 -4 84 4 19 38 35 57 26 3 -2 5 -24 5 -50z m-686 18 c1 -3 2 -27
3 -54 1 -36 -2 -46 -12 -42 -8 3 -22 5 -33 5 -16 0 -19 7 -19 53 l0 54 30 -5
c17 -2 31 -7 31 -11z m579 -35 c0 -52 -1 -54 -30 -58 -32 -5 -32 -5 -33 62 -1
31 3 36 29 41 16 4 30 7 32 8 1 0 2 -23 2 -53z m-470 -20 c0 -52 -1 -54 -25
-51 -35 3 -38 8 -39 60 -1 44 0 45 32 45 l32 0 0 -54z m123 45 c4 -1 7 -23 7
-51 l0 -50 -44 0 -43 0 0 48 c1 52 8 62 46 57 14 -2 29 -4 34 -4z m134 -49 l2
-52 -45 0 -44 0 0 49 c0 53 4 57 54 56 30 -1 31 -2 33 -53z m104 46 c3 -36 1
-79 -3 -84 -3 -3 -17 -7 -32 -10 -25 -4 -26 -3 -26 51 0 54 0 55 30 55 17 0
30 -5 31 -12z"/>
</g>
</svg>
